<?xml version="1.0" standalone="no"?>
<!DOCTYPE svg PUBLIC "-//W3C//DTD SVG 20010904//EN"
 "http://www.w3.org/TR/2001/REC-SVG-20010904/DTD/svg10.dtd">
<svg version="1.0" xmlns="http://www.w3.org/2000/svg"
 width="560.000000pt" height="334.000000pt" viewBox="0 0 560.000000 334.000000"
 preserveAspectRatio="xMidYMid meet">

<g transform="translate(0.000000,334.000000) scale(0.100000,-0.100000)"
fill="#000000" stroke="none">
<path d="M22 3318 c-9 -9 -12 -205 -12 -819 0 -444 3 -814 6 -823 6 -14 88
-16 825 -16 l819 0 0 -806 c0 -536 3 -812 10 -825 10 -19 30 -19 820 -19 444
0 815 3 824 6 14 6 16 88 16 829 0 741 -2 823 -16 829 -9 3 -380 6 -825 6
l-809 0 0 813 c0 619 -3 816 -12 825 -17 17 -1629 17 -1646 0z m1355 -160 c6
-7 13 -42 16 -77 5 -57 3 -66 -18 -87 -13 -13 -31 -24 -39 -24 -30 0 -64 19
-71 39 -10 33 3 44 31 27 48 -32 78 -5 32 28 -22 15 -22 16 -4 30 10 8 15 20
11 26 -5 9 -10 9 -18 1 -6 -6 -19 -11 -29 -11 -21 0 -24 30 -6 48 16 16 83 15
95 0z m161 -5 c-2 -11 -14 -19 -31 -21 -29 -4 -38 -22 -10 -22 49 0 72 -80 33
-115 -39 -35 -122 -12 -107 30 6 14 10 14 36 1 33 -17 41 -13 41 22 0 22 -2
23 -40 17 -44 -8 -46 -5 -34 68 l7 37 54 0 c46 0 54 -3 51 -17z m-718 -223
c124 -47 184 -159 150 -282 -10 -34 -78 -108 -100 -108 -22 0 -7 -17 40 -42
34 -19 57 -42 77 -75 25 -43 28 -58 28 -133 0 -98 -19 -145 -79 -198 -66 -58
-120 -66 -406 -67 l-255 0 -3 454 c-2 357 1 457 10 463 21 14 497 3 538 -12z
m670 -320 l0 -80 -27 0 c-37 -1 -103 -31 -130 -61 -37 -41 -43 -74 -43 -253 0
-137 -3 -176 -14 -185 -9 -7 -41 -11 -83 -9 l-68 3 0 325 0 325 80 0 c75 0 80
-1 83 -22 4 -27 24 -30 43 -6 21 24 69 42 117 43 l42 0 0 -80z m1540 -1096 c0
-9 -9 -18 -20 -21 -26 -7 -25 -16 2 -28 12 -6 26 -22 31 -37 20 -63 -52 -120
-108 -84 -44 29 -28 66 20 44 21 -10 28 -9 35 2 15 25 -1 41 -39 38 l-36 -3 3
40 c4 62 7 65 62 65 39 0 50 -3 50 -16z m148 4 c22 -22 14 -40 -15 -37 -34 4
-43 -14 -11 -21 12 -3 29 -18 37 -32 29 -51 -26 -110 -82 -89 -49 19 -62 127
-21 172 19 21 73 26 92 7z m-881 -229 c128 -22 203 -104 203 -222 0 -72 -28
-130 -76 -159 -40 -24 -42 -31 -10 -46 44 -20 95 -73 111 -117 13 -31 16 -66
14 -123 -5 -105 -39 -164 -119 -204 -78 -39 -165 -49 -410 -46 l-215 3 -3 454
c-2 357 0 456 10 463 20 12 422 10 495 -3z m774 -265 c46 -15 85 -48 110 -94
10 -18 15 -91 19 -275 3 -137 8 -257 10 -265 4 -12 -9 -16 -69 -18 -64 -3 -77
0 -97 19 l-23 22 -59 -27 c-80 -35 -175 -36 -247 -2 -58 27 -78 47 -100 99
-19 47 -19 108 0 155 33 79 88 113 228 142 175 36 187 40 187 65 0 62 -102 95
-185 61 -25 -11 -36 -23 -43 -48 -9 -38 -31 -44 -120 -33 l-54 7 7 36 c15 88
97 156 208 172 66 10 169 2 228 -16z"/>
<path d="M450 2691 l0 -111 125 0 c135 0 169 9 199 52 26 37 20 93 -13 130
l-29 33 -141 3 -141 4 0 -111z"/>
<path d="M452 2313 l3 -128 123 -3 c191 -4 241 17 250 106 6 69 -11 108 -59
133 -33 16 -59 19 -179 19 l-141 0 3 -127z"/>
<path d="M3117 1414 c-14 -15 -6 -34 14 -34 14 0 19 5 17 17 -3 18 -20 27 -31
17z"/>
<path d="M1970 1039 l0 -111 139 4 c139 3 140 3 170 32 38 36 46 74 27 119
-23 57 -55 67 -206 67 l-130 0 0 -111z"/>
<path d="M1974 777 c-2 -7 -3 -65 -2 -128 l3 -114 130 -3 c145 -3 197 8 228
50 46 61 24 158 -43 190 -46 22 -307 26 -316 5z"/>
<path d="M2917 666 c-112 -26 -141 -46 -139 -98 2 -85 142 -103 221 -29 28 26
31 35 31 90 0 34 -3 61 -7 60 -5 0 -52 -11 -106 -23z"/>
<path d="M3146 2916 c-94 -32 -107 -59 -43 -87 55 -24 57 -36 57 -362 0 -319
-4 -347 -50 -362 -34 -11 -22 -48 20 -62 70 -24 222 -12 241 19 10 16 -7 45
-31 53 -28 9 -41 69 -38 173 2 69 6 87 18 87 8 0 70 -70 138 -155 68 -85 138
-163 155 -172 71 -40 221 -5 191 43 -3 5 -25 19 -50 30 -24 12 -70 49 -101 83
-77 82 -183 223 -183 244 0 28 104 117 162 138 57 21 74 48 42 71 -27 19 -193
18 -222 -3 -27 -19 -28 -29 -2 -51 32 -28 24 -47 -46 -112 -101 -95 -99 -98
-100 179 0 129 -2 243 -2 253 -3 25 -71 22 -156 -7z"/>
<path d="M3919 2891 c-35 -36 -37 -64 -4 -96 53 -54 165 -18 165 54 0 69 -106
97 -161 42z"/>
<path d="M5507 2689 c-40 -24 -76 -26 -153 -12 -135 24 -240 -3 -312 -81 -71
-77 -79 -180 -21 -271 l30 -48 -35 -28 c-64 -54 -68 -124 -10 -167 l28 -20
-43 -47 c-38 -41 -43 -51 -38 -81 16 -100 140 -160 311 -152 119 6 195 35 257
97 95 94 87 206 -17 253 -41 18 -59 19 -207 13 -182 -7 -210 -1 -215 49 -2 16
1 33 7 39 7 7 59 11 134 12 106 0 127 3 163 22 99 53 147 153 123 259 -13 56
-13 57 15 77 63 46 48 124 -17 86z m-177 -107 c59 -60 62 -168 6 -229 -55 -60
-145 -55 -185 11 -31 49 -37 108 -17 161 24 61 57 85 118 85 41 0 54 -5 78
-28z m110 -562 c43 -43 14 -114 -60 -144 -92 -37 -230 -26 -273 22 -23 26 -30
72 -15 102 13 23 20 25 113 31 205 11 213 11 235 -11z"/>
<path d="M2012 2679 c-100 -19 -192 -92 -235 -187 -31 -67 -31 -217 -1 -283
31 -67 87 -124 152 -156 48 -24 69 -28 137 -27 70 0 88 4 140 31 71 37 138
102 133 129 -5 28 -34 28 -71 0 -72 -55 -170 -72 -240 -42 -39 17 -92 71 -106
109 -17 43 -14 104 5 111 9 3 100 6 204 6 224 0 226 1 216 88 -14 117 -85 197
-197 221 -56 12 -76 12 -137 0z m126 -89 c60 -37 97 -138 56 -154 -27 -10
-244 -7 -265 5 -16 8 -19 16 -13 42 11 51 33 86 67 107 42 26 112 26 155 0z"/>
<path d="M2620 2677 c-30 -7 -69 -21 -87 -30 -70 -37 -96 -112 -48 -143 32
-21 57 -12 103 38 47 51 80 68 132 68 58 0 86 -31 95 -103 11 -85 9 -86 -82
-80 -186 13 -301 -55 -319 -190 -23 -168 161 -270 329 -182 57 29 70 31 88 9
43 -52 131 -54 181 -4 33 33 29 52 -15 71 l-32 14 -6 200 c-6 208 -14 251 -55
287 -53 47 -185 68 -284 45z m190 -342 c16 -19 7 -143 -12 -174 -19 -30 -62
-44 -120 -39 -42 4 -57 11 -80 37 -50 56 -31 154 36 181 38 16 162 12 176 -5z"/>
<path d="M4568 2676 c-21 -7 -53 -28 -73 -45 -20 -17 -39 -31 -44 -31 -5 0
-11 18 -15 40 -6 38 -8 40 -40 40 -49 0 -160 -36 -180 -59 -22 -24 -15 -37 28
-55 43 -18 46 -35 46 -248 0 -166 0 -169 -25 -193 -13 -14 -29 -25 -35 -25
-15 0 -12 -36 5 -50 9 -7 55 -15 108 -18 144 -7 212 32 133 79 -30 17 -35 26
-41 75 -10 82 4 252 25 301 35 81 131 109 190 56 41 -37 49 -79 50 -252 l0
-143 -37 -34 c-31 -28 -36 -38 -27 -52 23 -36 234 -41 269 -5 21 21 19 27 -19
56 l-34 26 -4 183 c-4 162 -7 189 -27 233 -27 61 -45 82 -93 106 -51 26 -115
32 -160 15z"/>
<path d="M3921 2655 c-35 -13 -68 -28 -73 -33 -17 -17 -1 -42 32 -53 44 -16
52 -60 48 -261 l-3 -169 -33 -27 c-36 -30 -41 -56 -14 -67 9 -4 53 -9 97 -12
87 -6 159 8 169 32 5 15 2 19 -44 54 l-25 19 0 259 c0 142 -1 264 -3 271 -3
20 -80 13 -151 -13z"/>
<path d="M3890 1271 c-30 -9 -65 -23 -77 -30 -32 -17 -29 -49 4 -62 54 -20 63
-37 63 -111 0 -37 -4 -68 -9 -68 -5 0 -28 7 -51 15 -23 8 -73 15 -110 15 -55
0 -78 -6 -128 -31 -111 -55 -163 -147 -170 -295 -6 -123 13 -179 82 -250 40
-41 63 -56 108 -69 78 -22 133 -13 209 37 34 21 64 37 66 34 3 -3 8 -20 12
-38 6 -30 10 -33 47 -36 58 -4 168 37 172 65 2 17 -5 24 -32 34 -19 7 -39 20
-43 28 -4 9 -8 184 -8 389 0 404 1 392 -55 391 -14 0 -50 -8 -80 -18z m-80
-336 c63 -32 70 -54 70 -204 0 -111 -4 -144 -19 -177 -42 -93 -178 -99 -246
-10 -80 105 -63 331 29 387 38 23 125 25 166 4z"/>
</g>
</svg>
